<svg xmlns="http://www.w3.org/2000/svg" xmlns:xlink="http://www.w3.org/1999/xlink" width="841.89" height="490.91" enable-background="new 0 0 841.89 490.91" overflow="visible" version="1.0" viewBox="0 0 841.89 490.91" xml:space="preserve"><g id="sunrise"><radialGradient id="XMLID_23_" cx="420.945" cy="245.455" r="344.56" gradientUnits="userSpaceOnUse"><stop offset="0" style="stop-color:#fff"/><stop offset="1" style="stop-color:#0095d9"/></radialGradient><polygon fill="url(#XMLID_23_)" fill-rule="evenodd" points="841.89 249.198 841.89 241.709 841.89 0 0 0 0 241.709 0 249.198 0 490.91 841.89 490.91 841.89 249.198" clip-rule="evenodd"/><radialGradient id="XMLID_24_" cx="420.945" cy="245.455" r="344.56" gradientUnits="userSpaceOnUse"><stop offset="0" style="stop-color:#fff"/><stop offset="1" style="stop-color:#00a1e4"/></radialGradient><path fill="url(#XMLID_24_)" fill-rule="evenodd" d="M412.592,244.014c4.703,6.64,11.882,7.343,16.69-0.627 L451.382,0h295.645L437.449,248.711c-3.408,7.385-0.433,13.94,8.891,14.11L841.89,80.232v161.477v7.488v176.411L445.803,272.545 c-8.112,0.743-12.313,6.597-7.801,14.737L727.467,490.91H460.32l-31.022-199.229c-4.703-6.641-11.881-7.343-16.69,0.629 l-18.034,198.6H150.611L404.44,286.983c3.41-7.381,0.432-13.94-8.89-14.11L0,455.464V249.198v-7.488V110.089L396.087,263.15 c8.112-0.746,12.313-6.596,7.799-14.739L50.757,0h323.837L412.592,244.014L412.592,244.014z" clip-rule="evenodd"/><radialGradient id="XMLID_25_" cx="420.945" cy="245.455" r="344.56" gradientUnits="userSpaceOnUse"><stop offset="0" style="stop-color:#fff"/><stop offset="1" style="stop-color:#008fd4"/></radialGradient><polygon fill="url(#XMLID_25_)" fill-rule="evenodd" points="421.476 265.861 777.935 0 788.032 0 422.935 267.312 841.89 446.746 841.89 453.367 422.404 269.301 448.693 490.91 444.654 490.91 420.413 269.835 124.004 490.91 115.029 490.91 418.955 268.383 0 88.951 0 82.33 419.486 266.394 387.883 0 392.325 0 421.476 265.861" clip-rule="evenodd"/><radialGradient id="XMLID_26_" cx="420.945" cy="245.455" r="344.56" gradientUnits="userSpaceOnUse"><stop offset="0" style="stop-color:#fff"/><stop offset="1" style="stop-color:#00b9f1"/></radialGradient><path fill="url(#XMLID_26_)" fill-rule="evenodd" d="M420.2,225.921L423.196,0h44.835l-44.63,227.181 c8.078,2.331,16.048,5.208,23.86,8.884L651.067,0h94.521L448.902,239.085c4.685,6.968,8.935,14.283,12.551,22.113L841.89,199.29 v42.419v7.488v22.499l-381.125-7.131c-0.901,8.344-2.357,16.679-4.632,24.997L795.306,490.91H682.382L453.438,291.702 c-6.063,5.817-12.547,11.267-19.645,16.183L497.81,490.91h-38.704l-28.755-183.118c-8.39,0.568-16.866,0.586-25.467-0.2 L335.272,490.91h-45.091l112.125-185.599c-6.791-4.947-13.293-10.37-19.373-16.492L21.466,490.91H0v-74.631L382.426,285.42 c-2.014-8.147-3.5-16.475-4.213-25.067L0,188.759v-77.505l380.013,146.171c3.705-7.537,7.931-14.871,12.917-21.911L200.137,0 h66.338l129.721,234.424C403.886,231.027,411.846,228.118,420.2,225.921L420.2,225.921z" clip-rule="evenodd"/><radialGradient id="XMLID_27_" cx="420.945" cy="245.455" r="344.56" gradientUnits="userSpaceOnUse"><stop offset="0" style="stop-color:#fff"/><stop offset="1" style="stop-color:#00c0f3"/></radialGradient><path fill="url(#XMLID_27_)" fill-rule="evenodd" d="M420.2,225.921L423.099,0h36.937l-36.969,226.367 c5.961,0.652,12.745,2.633,19.911,6.481L597.135,0h59.639L445.146,234.771c4.661,3.766,9.294,9.093,13.236,16.197L841.89,81.927 v67.292L459.166,253.755c1.879,5.686,2.892,12.666,2.357,20.773l380.366,59.423v62.741L460.673,277.297 c-1.498,5.797-4.429,12.218-9.269,18.75l219.66,194.862H610.53L449.188,297.917c-4.399,4.07-10.344,7.892-17.952,10.776 l51.081,182.216h-31.246l-22.713-181.837c-5.903,1.048-12.973,1.059-20.936-0.621L351.197,490.91h-34.652l88.253-183.692 c-5.536-2.302-11.485-6.109-17.274-11.817L155.611,490.91H64.394l321.593-197.964c-3.408-4.926-6.351-11.339-8.127-19.269L0,323.11 v-59.282l377.896,6.956c-0.199-5.983,0.801-12.968,3.601-20.595L0,70.507V0h12.116l370.979,247.772 c3.073-5.142,7.699-10.479,14.186-15.388L251.792,0h47.545l100.597,231.214C405.303,228.546,412.085,226.55,420.2,225.921 L420.2,225.921z" clip-rule="evenodd"/><radialGradient id="XMLID_28_" cx="420.945" cy="245.455" r="344.56" gradientUnits="userSpaceOnUse"><stop offset="0" style="stop-color:#fff"/><stop offset="1" style="stop-color:#44c7f4"/></radialGradient><path fill="url(#XMLID_28_)" fill-rule="evenodd" d="M420.2,225.921L455.688,0h8.476l-42.256,226.299 c4.309,0.108,8.558,0.79,12.721,2.312L561.104,0h10.761L436.103,229.551c4.011,1.571,7.771,3.663,11.159,6.515L718.391,0h19.019 L448.326,237.45c3.229,2.849,6.045,6.098,8.251,9.934L841.89,98.941v14.415L457.104,249.048c2.06,3.777,3.592,7.792,4.35,12.15 l380.437-7.352v12.661l-380.514-3.565c0.641,4.254,0.703,8.549-0.077,12.904L841.89,405.849v14.189L460.63,277.46 c-0.858,4.216-2.271,8.276-4.497,12.103L706.165,490.91h-16.901L454.951,290.848c-2.25,3.673-4.969,7.004-8.371,9.84L561.53,490.91 h-9.358L445.029,301.495c-3.372,2.681-7.068,4.885-11.236,6.39l35.946,183.025h-7.221l-30.46-182.799 c-4.087,1.37-8.314,2.179-12.748,2.17L390.938,490.91h-7.134l33.8-181.007c-4.309-0.107-8.559-0.789-12.72-2.312L303.465,490.91 h-9.032l108.977-184.258c-4.013-1.572-7.772-3.664-11.16-6.515L173.142,490.91h-15.899l233.942-192.157 c-3.23-2.849-6.045-6.097-8.251-9.934L0,436.347v-14.341l382.408-134.851c-2.06-3.781-3.591-7.794-4.35-12.151L0,282.309v-12.595 l378.135,3.545c-0.641-4.256-0.704-8.551,0.078-12.906L0,131.167v-14.113l378.882,141.688c0.856-4.217,2.269-8.275,4.495-12.102 L77.102,0h20.097l287.36,245.354c2.251-3.672,4.968-7.002,8.371-9.839L250.612,0h11.107l132.763,234.708 c3.372-2.683,7.068-4.886,11.236-6.39L360.877,0h8.565l38.009,228.09C411.54,226.721,415.767,225.912,420.2,225.921L420.2,225.921z" clip-rule="evenodd"/><radialGradient id="XMLID_29_" cx="420.945" cy="245.455" r="344.56" gradientUnits="userSpaceOnUse"><stop offset="0" style="stop-color:#fff"/><stop offset="1" style="stop-color:#c7eafb"/></radialGradient><path fill="url(#XMLID_29_)" fill-rule="evenodd" d="M418.217,226.159L417.082,0h3.01l3.025,226.803 c15.041,1.789,27.03,7.974,36.479,26.782L841.89,127.283v1.633l-381.396,129.52c2.936,14.833,0.742,28.128-14.267,42.92 L585.726,490.91h-3.667L441.883,303.707c-13.228,7.378-26.573,9.412-45.295-0.258L261.615,490.91h-3.637l135.025-190.854 c-11.109-10.274-17.164-22.312-13.728-43.077L0,136.276v-1.658l381.405,117.906C387.766,238.798,397.37,229.325,418.217,226.159 L418.217,226.159z" clip-rule="evenodd"/><path fill="url(#XMLID_29_)" fill-rule="evenodd" d="M420.2,225.921L430.859,0h4.137l-10.074,229.478 c11.9,8.12,23.646,16.712,35.164,25.996L841.89,151.07v3.707L458.153,261.056c-4.063,13.809-8.624,27.616-13.916,41.422 L568.301,490.91h-4.959L438.321,302.369c-14.412,0.416-28.978,0.357-43.767-0.396L242.956,490.91h-5.213l155.088-194.584 c-4.845-13.553-9.284-27.397-13.132-41.666L0,111.621v-3.14l0.641-0.401L384.55,251.275 C395.968,242.485,407.789,233.988,420.2,225.921L420.2,225.921z" clip-rule="evenodd"/></g><g id="grass"><linearGradient id="XMLID_31_" x1="192.922" x2="192.922" y1="201.715" y2="250.849" gradientUnits="userSpaceOnUse"><stop offset="0" style="stop-color:#92cc8b"/><stop offset="1" style="stop-color:#b6dcae"/></linearGradient><path fill="url(#XMLID_31_)" fill-rule="evenodd" d="M385.845,250.849c-2.933-0.816-6.058-1.885-9.338-3.19 c-6.829-2.561-15.351-5.291-25.427-8.021c-10.104-2.737-22.071-5.235-35.884-7.392c-63.779-3.796-125.341,2.755-177.526-19.84 C82.155,188.371,37.427,211.359,0,218.54c0,5.387,0,10.772,0,16.157s0,10.77,0,16.153c64.282,0,128.602,0,192.884,0 S321.525,250.849,385.845,250.849L385.845,250.849z" clip-rule="evenodd"/><linearGradient id="XMLID_32_" x1="646.868" x2="646.868" y1="218.532" y2="250.849" gradientUnits="userSpaceOnUse"><stop offset="0" style="stop-color:#92cc8b"/><stop offset="1" style="stop-color:#b6dcae"/></linearGradient><path fill="url(#XMLID_32_)" fill-rule="evenodd" d="M451.847,250.849c2.928-1.268,6.051-2.809,9.369-4.55 c6.832-3.164,15.251-6.187,25.413-8.88c10.137-2.684,22.138-5.068,36.112-7.414c64.414-10.082,125.59-12.773,179.348-2.707 c54.631,10.231,101.775,0.712,139.801-8.766c0,5.391,0,10.776,0,16.162c0,5.385,0,10.772,0,16.155c-65.039,0-130.041,0-195.043,0 C581.849,250.849,516.848,250.849,451.847,250.849L451.847,250.849z" clip-rule="evenodd"/><linearGradient id="XMLID_33_" x1="420.945" x2="420.945" y1="250.849" y2="490.91" gradientUnits="userSpaceOnUse"><stop offset="0" style="stop-color:#51b848"/><stop offset="1" style="stop-color:#d1e39a"/></linearGradient><polygon fill="url(#XMLID_33_)" fill-rule="evenodd" points="0 490.91 841.89 490.91 841.89 250.849 0 250.849 0 490.91" clip-rule="evenodd"/><linearGradient id="XMLID_34_" x1="196.601" x2="196.601" y1="250.898" y2="412.68" gradientUnits="userSpaceOnUse"><stop offset="0" style="stop-color:#8cc63f"/><stop offset="1" style="stop-color:#008c44"/></linearGradient><path fill="url(#XMLID_34_)" fill-rule="evenodd" d="M386.865,254.534c0.069,0.182,8.622,14.151,5.746,28.282 c-3.113,15.302-17.158,28.593-22.429,32.574c-5.271,3.982-0.874,2.784-16.13,11.705c-15.255,8.925-76.963,26.465-122.532,37.907 c-45.568,11.444-141.637,24.456-171.129,32.041C30.9,404.629,29.343,406.3,2.448,412.141c-0.833,0.182-1.647,0.36-2.448,0.539 v-17.238c5.403-2.31,13.731-5.021,33.531-9.281c46.466-10.001,212.742-36.323,269.916-48.061 c57.174-11.738,60.778-17.759,78.227-38.632c17.448-20.877,8.032-32.336,6.576-37.881c-1.455-5.547-2.63-7.805-3.599-10.689 c0.069,0,0.138,0,0.208,0s0.139,0,0.208,0C386.034,252.814,386.796,254.353,386.865,254.534L386.865,254.534z" clip-rule="evenodd"/><linearGradient id="XMLID_35_" x1="647.92" x2="647.92" y1="250.898" y2="465.211" gradientUnits="userSpaceOnUse"><stop offset="0" style="stop-color:#8cc63f"/><stop offset="1" style="stop-color:#008c44"/></linearGradient><path fill="url(#XMLID_35_)" fill-rule="evenodd" d="M465.412,254.687 c0.498,0.182,43.664,14.105,81.237,30.765c32.182,14.27,56.261,29.914,61.356,33.994c5.094,4.08,3.054,2.906,12.07,11.825 c9.019,8.916,19.775,25.479,18.995,36.131c-0.783,10.649-3.278,21.399,2.936,28.603c6.213,7.204,7.134,8.909,20.268,14.497 c13.131,5.587,22.033,10.1,32.561,13.742c6.911,2.395,88.846,24.636,147.055,40.968v-18.386 c-45.615-9.254-92.421-19.581-110.285-24.33c-30.38-8.074-44.601-11.786-61.136-19.353c-16.534-7.565-15.722-8.999-20.488-18.622 c-4.769-9.625-2.573-31.961-10.301-42.786c-7.728-10.824-7.078-17.273-46.735-38.511c-39.661-21.233-82.455-34.647-100.952-40.768 c-18.494-6.118-27.466-8.521-37.6-11.559c-0.056,0-0.111,0-0.222,0c-0.056,0-0.11,0-0.222,0 C459.82,252.818,464.915,254.505,465.412,254.687L465.412,254.687z" clip-rule="evenodd"/><linearGradient id="XMLID_36_" x1="193.716" x2="193.716" y1="250.898" y2="379.361" gradientUnits="userSpaceOnUse"><stop offset="0" style="stop-color:#eaed99"/><stop offset="1" style="stop-color:#51b848"/></linearGradient><path fill="url(#XMLID_36_)" fill-rule="evenodd" d="M382.943,254.558c0.111,0.184,8.289,14.95,2.296,28.307 c-7.301,16.274-29.441,28.709-37.848,32.721c-8.407,4.01-3.814,2.849-36.663,12.093c-32.849,9.247-193.462,28.924-262.639,40.887 C26.507,372.297,11.313,375.92,0,379.361v-33.478c6.363-0.662,13.047-1.312,20.094-1.942 c155.343-13.914,312.043-23.357,341.963-44.255c29.92-20.897,19.664-32.431,19.479-38.003c-0.185-5.569-0.963-7.852-1.407-10.785 c0.223,0,0.37,0,0.519,0c0.222,0,0.37,0,0.592,0C382.128,252.814,382.832,254.375,382.943,254.558L382.943,254.558z" clip-rule="evenodd"/><linearGradient id="XMLID_37_" x1="650.646" x2="650.646" y1="250.898" y2="429.5" gradientUnits="userSpaceOnUse"><stop offset="0" style="stop-color:#eaed99"/><stop offset="1" style="stop-color:#51b848"/></linearGradient><path fill="url(#XMLID_37_)" fill-rule="evenodd" d="M471.931,254.662c0.61,0.184,48.328,13.787,91.571,30.499 c36.281,14.02,62.595,29.743,67.527,33.8c4.931,4.053,1.52,2.86,10.15,11.726c8.63,8.868,13.439,25.077,23.756,36.155 c10.318,11.079,41.647,22.267,60.258,29.601s12.095,8.936,46.219,14.837c34.121,5.899,37.542,10.245,52.913,13.912 c2.271,0.542,8.542,2.078,17.564,4.31v-32.959c-11.147-2.693-26.04-5.693-61.767-10.832 c-71.779-10.32-103.679-33.741-111.154-44.509c-7.476-10.766-2.171-17.175-46.508-38.29 c-44.335-21.119-95.854-34.458-117.85-40.525c-21.992-6.071-32.539-8.474-44.417-11.487c-0.145,0-0.287,0-0.359,0 c-0.144,0-0.288,0-0.433,0C465.811,252.818,471.316,254.48,471.931,254.662L471.931,254.662z" clip-rule="evenodd"/><linearGradient id="XMLID_38_" x1="192.787" x2="192.787" y1="250.849" y2="229.851" gradientUnits="userSpaceOnUse"><stop offset="0" style="stop-color:#51b848"/><stop offset="1" style="stop-color:#b6dcae"/></linearGradient><path fill="url(#XMLID_38_)" fill-rule="evenodd" d="M385.574,250.849 c-66.983-13.719-147.724-3.318-218.001-14.723C92.891,224.007,33.221,231.954,0,238.964c0,1.986,0,3.969,0,5.948 c0,1.982,0,3.961,0,5.937c64.243,0,128.524,0,192.768,0C257.011,250.849,321.292,250.849,385.574,250.849L385.574,250.849z" clip-rule="evenodd"/><linearGradient id="XMLID_39_" x1="646.692" x2="646.692" y1="250.849" y2="229.898" gradientUnits="userSpaceOnUse"><stop offset="0" style="stop-color:#51b848"/><stop offset="1" style="stop-color:#b6dcae"/></linearGradient><path fill="url(#XMLID_39_)" fill-rule="evenodd" d="M451.495,250.849 c67.539-15.349,148.551-25.61,220.533-18.815c72.758,6.868,136.132,5.39,169.861,6.928c0,1.984,0,3.966,0,5.948 c0,1.978,0,3.958,0,5.939c-65.079,0-130.198,0-195.238,0C581.614,250.849,516.536,250.849,451.495,250.849L451.495,250.849z" clip-rule="evenodd"/><linearGradient id="XMLID_40_" x1="165.142" x2="165.142" y1="202.484" y2="237.167" gradientUnits="userSpaceOnUse"><stop offset="0" style="stop-color:#c0e1c1"/><stop offset="1" style="stop-color:#b6dcae"/></linearGradient><path fill="url(#XMLID_40_)" fill-rule="evenodd" d="M330.283,237.167c-4.707-0.988-9.724-1.933-15.048-2.839 c-63.779-4.867-125.34,1.139-177.527-21.284C82.152,189.172,37.427,212.123,0,220.084c0,1.693,0,3.385,0,5.07 c39.434-9.1,85.601-24.503,144.538-4.082C198.777,239.866,263.454,231.378,330.283,237.167L330.283,237.167z" clip-rule="evenodd"/><linearGradient id="XMLID_41_" x1="674.762" x2="674.762" y1="220.074" y2="235.434" gradientUnits="userSpaceOnUse"><stop offset="0" style="stop-color:#c0e1c1"/><stop offset="1" style="stop-color:#b6dcae"/></linearGradient><path fill="url(#XMLID_41_)" fill-rule="evenodd" d="M507.634,235.434c4.764-1.042,9.798-2.066,15.107-3.089 c64.414-11.027,125.582-14.449,179.348-4.659c54.623,9.945,101.775,0.768,139.801-7.612c0,1.693,0,3.386,0,5.074 c-40.017,7.503-89.291,12.419-146.555,3.849C639.053,220.574,575.095,224.676,507.634,235.434L507.634,235.434z" clip-rule="evenodd"/></g><g id="road"><linearGradient id="XMLID_42_" x1="420.945" x2="420.945" y1="490.91" y2="250.849" gradientUnits="userSpaceOnUse"><stop offset="0" style="stop-color:#231f20"/><stop offset="1" style="stop-color:#828487"/></linearGradient><path fill="url(#XMLID_42_)" fill-rule="evenodd" d="M385.762,250.849c21.835,0,43.788,0,65.623,0 c98.316,40.019,193.631,83.475,176.683,120.055c-19.521,42.137,66.417,69.772,213.822,101.098v18.908H356.847H0v-69.656 c66.95-14.755,147.599-30.923,242.362-50.35C382.516,342.172,412.2,290.868,385.762,250.849L385.762,250.849z" clip-rule="evenodd"/><linearGradient id="XMLID_43_" x1="386.892" x2="386.892" y1="487.342" y2="250.849" gradientUnits="userSpaceOnUse"><stop offset="0" style="stop-color:#d1d3d4"/><stop offset="1" style="stop-color:#fff"/></linearGradient><path fill="url(#XMLID_43_)" fill-rule="evenodd" d="M416.567,250.849c1.298,0,2.596,0,3.895,0 c1.564,0.969,3.11,1.948,4.635,2.932l-4.04,0.115C419.584,252.875,418.087,251.857,416.567,250.849L416.567,250.849z M429.286,256.537c1.817,1.217,3.604,2.444,5.356,3.682l-4.747,0.129c-1.611-1.235-3.262-2.465-4.942-3.686l2.669-0.076 L429.286,256.537L429.286,256.537z M439.459,263.699c2.065,1.531,4.079,3.073,6.035,4.625l-5.678,0.148 c-1.774-1.556-3.608-3.102-5.499-4.636L439.459,263.699L439.459,263.699z M450.938,272.787c2.353,1.998,4.611,4.011,6.766,6.029 l-6.959,0.166c-1.9-2.021-3.911-4.038-6.021-6.038L450.938,272.787L450.938,272.787z M463.686,284.725 c2.589,2.702,4.985,5.416,7.169,8.129l-8.8,0.186c-1.814-2.715-3.848-5.433-6.083-8.139L463.686,284.725L463.686,284.725z M476.841,301.095c2.508,3.888,4.552,7.761,6.083,11.59l-11.692,0.202c-0.935-3.829-2.403-7.703-4.351-11.596L476.841,301.095 L476.841,301.095z M486.028,324.852c0.621,6.154-0.31,12.119-3.006,17.771l-16.876,0.206c3.801-5.651,5.803-11.612,6.223-17.763 L486.028,324.852L486.028,324.852z M464.135,362.191c-4.95,3.114-10.784,6.033-17.589,8.713 c-19.442,7.657-36.048,14.762-50.03,21.444l-29.327,0.138c16.137-6.729,34.891-13.879,56.46-21.582 c7.362-2.629,13.801-5.483,19.382-8.523L464.135,362.191L464.135,362.191z M343.885,427.017 c-16.971,20.855-0.367,38.786,40.302,60.325c-23.019-0.3-45.803-0.598-68.357-0.887c-31.009-21.14-38.151-38.934-13.136-59.507 L343.885,427.017L343.885,427.017z" clip-rule="evenodd"/><linearGradient id="XMLID_44_" x1="420.945" x2="420.945" y1="482.213" y2="250.849" gradientUnits="userSpaceOnUse"><stop offset="0" style="stop-color:#bcbec0"/><stop offset="1" style="stop-color:#fff"/></linearGradient><path fill="url(#XMLID_44_)" fill-rule="evenodd" d="M387.179,250.849c0.472,0,0.944,0,1.535,0 c29.624,40.019,4.937,91.403-129.12,120.055C153.728,393.531,67.526,411.716,0,428.387v-3.716 c67.479-15.673,150.935-32.821,250.978-53.768C388.022,342.211,415.269,290.868,387.179,250.849L387.179,250.849z M448.435,250.849 c0.473,0,0.943,0,1.416,0c96.779,40.019,189.298,84.9,169.485,120.055c-25.516,45.267,65.877,72.884,222.554,106.169v5.141 c-166.04-35.547-262.938-62.968-231.053-111.31C633.194,337.007,543.563,290.868,448.435,250.849L448.435,250.849z" clip-rule="evenodd"/></g></svg>